<svg xmlns="http://www.w3.org/2000/svg" width="1200" height="100" viewBox="-650 400 300 190">
    <g>
        <g transform="matrix(2.2,0.3,-1.3,0.4,1026,146.1)">
            <path d="M 288.3 617.7 C 315.2 635.5 347.5 647.6 374.5 674.7 C 401.4 701.8 423 743.8 405.7 765.9 C 388.5 788 332.4 790.2 294.7 810.8 C 257 831.4 237.6 870.3 208.4 883.8 C 179.2 897.3 140.2 885.3 98.2 866.1 C 56.2 846.9 11.2 820.6 22.8 791.2 C 34.3 761.7 102.5 729.3 125.1 689 C 147.7 648.6 124.8 600.4 132.7 576.4 C 140.6 552.5 179.4 552.9 209.6 564.8 C 239.8 576.6 261.3 600 288.3 617.7 Z" fill="#7bdcb5" transform="matrix(1.5,0,0,1.6,-56.2,-234.1)"/>
        </g>

        <g transform="matrix(2.6,-0.1,0.6,0.5,1071.6,186.1)">
            <path transform="matrix(0.9,0,0,1.6,39.3,-1041.2)" d="M -386.2 1003.9 C -381 1032.6 -398.2 1067.2 -373 1098.9 C -347.8 1130.5 -280.3 1159.3 -265.5 1188.5 C -250.8 1217.7 -288.8 1247.4 -327.8 1251.9 C -366.8 1256.4 -406.7 1235.7 -430.8 1213.8 C -454.9 1192 -463.2 1169 -507.4 1166.2 C -551.6 1163.4 -631.8 1180.8 -663.2 1163.6 C -694.6 1146.4 -677.2 1094.6 -636.8 1075 C -596.4 1055.3 -533 1067.9 -497.5 1049.1 C -462 1030.3 -454.3 980.1 -436.7 966.4 C -419.1 952.6 -391.4 975.3 -386.2 1003.9 Z" fill="#dca27b">
            </path>
        </g>
        <g transform="matrix(-2.6,-0.1,0.6,-0.4,1577.5,110.4)">
            <path d="M 274.1 -1307.6 C 292 -1310.7 298.4 -1281.9 310.4 -1253.1 C 322.3 -1224.2 339.7 -1195.2 330.9 -1176.9 C 322.1 -1158.5 287.1 -1150.7 260.5 -1120.9 C 233.8 -1091 215.6 -1039.1 204.2 -1048.4 C 192.7 -1057.7 188 -1128.3 141.7 -1151.7 C 95.4 -1175.2 7.6 -1151.6 -24.3 -1165.9 C -56.2 -1180.3 -32.1 -1232.6 3.3 -1262.6 C 38.7 -1292.6 85.4 -1300.3 119.7 -1291.9 C 153.9 -1283.4 175.7 -1258.8 201.2 -1264.1 C 226.8 -1269.3 256.2 -1304.4 274.1 -1307.6 Z" fill="#dc7b8f" transform="matrix(0.4,0,0,1,53.9,7.2)">
            </path>
        </g>
    </g>
</svg>
