<svg xmlns="http://www.w3.org/2000/svg" viewBox="0 0 587.79 64.03">
    <defs>
        <clipPath id="a">
            <path fill="none" d="M-.44.29h588v64h-588z"/>
        </clipPath>
    </defs>
    <g clip-path="url(#a)">
        <path d="M673.39 52.74c27.23 12.36 70.08 24.09 87.31 39.61 17.06 15.5 8.59 34.77-45.65 38.11-54.07 3.37-153.91-9.17-241.94-11.16s-164.31 6.52-229.81 4.15-120.09-15.65-172-32.07S-30 55.45 22.32 48.3s206.19-2 289.56-10.2c88.68 5.19 96.68-29.6 136.68-35.81s111 3 145 18c39.53 11.12 52.31 20.09 79.83 32.45z" fill="#7bdcb5"/>
        <path d="M539.56 13.29c20.9 11.83 12 34.45 59.05 46.6s144.68 21 177.66 32.64 1.07 25.9-44.69 29.64-105.36-3.08-146.1-11.17-62.54-17.32-118.39-16.4-145.83 12-193.2 6.28-52.1-28.39-12.25-38.55 124.25-7.91 158.47-17.51c31.45.47 19.69-26.93 34.45-33.53s64.14-9.8 85 2z" fill="#dca27b"/>
        <path d="M379.59 85.92c-10.77.27-5.18-5.92-2.66-12.24s2.25-12.81 12.85-16.47S422 52.61 446 46.9s13.27-30.81 16.57-28.61S483.34 50 501.3 55.88s73.43 2.81 86.37 6.49-16.79 14.2-45.67 19.77-56.84 6.21-73 3.72-20.2-8.14-35.83-7.57-42.77 7.33-53.58 7.63z" fill="#dc7b8f"/>
    </g>
</svg>
